<svg width="139" height="34" viewBox="0 0 139 34" fill="none" xmlns="http://www.w3.org/2000/svg">
<path d="M77.0355 18.3857C77.0355 14.3104 73.6781 10.8872 69.8367 10.8872C65.9954 10.8872 62.5244 13.8872 62.5244 18.9515C62.5244 23.309 65.5414 26.5911 70.4073 26.5911C72.2847 26.5911 74.2487 25.856 75.2449 25.0347C75.784 24.6115 76.0409 24.1287 76.0409 23.6491C76.0409 22.9108 75.4151 22.2337 74.5892 22.2337C74.2755 22.2337 73.9618 22.3183 73.6213 22.4876C72.9956 22.8278 72.3115 23.4782 70.2355 23.4782C68.2731 23.4782 66.3941 22.2337 65.9118 19.9124H75.3016C76.2127 19.9124 76.9788 19.2901 77.0371 18.3857H77.0355ZM73.3928 17.0832H65.9386C66.3926 14.7336 67.9294 13.9985 69.8367 13.9985C71.6021 13.9985 73.2509 15.2697 73.3928 16.8841V17.0832Z" fill="#0057FF"/>
<path d="M91.8825 5.36841C90.8862 5.36841 90.1754 6.10352 90.1754 7.09413V12.6396C89.1792 11.7337 87.5588 10.8841 85.5931 10.8841C81.7518 10.8841 78.708 14.1083 78.708 18.7494C78.708 23.3905 81.7518 26.588 85.7066 26.588C87.6423 26.588 89.3194 25.5692 90.1738 24.6084C90.1738 25.5692 90.8847 26.3059 91.8809 26.3059C92.8771 26.3059 93.588 25.5708 93.588 24.5802V7.09413C93.588 6.07531 92.8771 5.36841 91.8809 5.36841H91.8825ZM86.137 23.4767C83.6591 23.4767 81.9819 21.4407 81.9819 18.751C81.9819 16.0613 83.6591 13.9986 86.137 13.9986C88.6149 13.9986 90.3172 16.0644 90.3172 18.751C90.3172 21.4375 88.6401 23.4767 86.137 23.4767Z" fill="#0057FF"/>
<path d="M98.7977 11.1693C97.7999 11.1693 97.089 11.9029 97.089 12.8951V24.5801C97.089 25.5707 97.7999 26.3058 98.7977 26.3058C99.7955 26.3058 100.505 25.5707 100.505 24.5801V12.8951C100.505 11.9029 99.7939 11.1693 98.7977 11.1693ZM98.7977 5.9624C97.5729 5.9624 97.0039 6.30253 97.0039 7.37778V7.9154C97.0039 8.96086 97.4878 9.3292 98.7662 9.3292C100.045 9.3292 100.587 9.01729 100.587 7.9154V7.37778C100.587 6.33074 100.104 5.9624 98.7961 5.9624H98.7977Z" fill="#0057FF"/>
<path d="M114.024 23.1946H108.077L114.905 14.3936C115.334 13.8842 115.361 13.5174 115.389 13.149C115.474 12.1882 114.763 11.4515 113.88 11.4515H105.116C104.207 11.4515 103.524 12.1004 103.524 12.9798C103.524 13.8591 104.208 14.5644 105.116 14.5644H110.638L103.865 23.2777C103.409 23.8435 103.351 24.2118 103.324 24.7777C103.296 25.4579 103.893 26.3059 104.861 26.3059H114.024C114.935 26.3059 115.616 25.6272 115.616 24.7495C115.616 23.8717 114.933 23.1946 114.024 23.1946Z" fill="#0057FF"/>
<path d="M119.92 11.1693C118.924 11.1693 118.211 11.9029 118.211 12.8951V24.5801C118.211 25.5707 118.924 26.3058 119.92 26.3058C120.916 26.3058 121.627 25.5707 121.627 24.5801V12.8951C121.627 11.9029 120.916 11.1693 119.92 11.1693ZM119.92 5.9624C118.695 5.9624 118.126 6.30253 118.126 7.37778V7.9154C118.126 8.96086 118.61 9.3292 119.891 9.3292C121.173 9.3292 121.712 9.01729 121.712 7.9154V7.37778C121.712 6.33074 121.228 5.9624 119.92 5.9624Z" fill="#0057FF"/>
<path d="M133.583 10.8856C131.42 10.8856 129.741 12.1881 128.86 13.3762V12.895C128.86 11.9029 128.149 11.1693 127.151 11.1693C126.154 11.1693 125.444 11.9029 125.444 12.895V24.5801C125.444 25.5707 126.155 26.3058 127.151 26.3058C128.148 26.3058 128.86 25.5707 128.86 24.5801V17.3371C128.86 15.4969 130.112 13.9985 132.388 13.9985C134.664 13.9985 135.29 15.4969 135.29 17.3371V24.5801C135.29 25.5707 136.001 26.3058 136.997 26.3058C137.993 26.3058 138.705 25.5707 138.705 24.5801V17.3371C138.705 13.801 137.766 10.8856 133.584 10.8856H133.583Z" fill="#0057FF"/>
<path d="M29.634 6.48591C29.634 6.47024 29.634 6.453 29.634 6.43732C29.6356 6.32604 29.634 6.21475 29.6324 6.10346C29.5584 4.36364 28.838 2.70218 27.4651 1.53759C26.3396 0.583037 24.9525 0.108111 23.5307 0.0845998C23.4172 0.0783301 23.3037 0.0751953 23.1887 0.0751953C21.5399 0.0751953 20.0361 0.691188 18.8965 1.70374C18.5276 1.99841 18.1793 2.33384 17.8593 2.70688L9.9291 11.9468L9.87078 11.8982L1.83181 21.2635C-0.746962 24.2682 -0.578302 28.5927 2.18174 30.936C2.18647 30.9407 2.1912 30.9438 2.19593 30.9485C2.20066 30.9532 2.20539 30.9564 2.21012 30.9611C3.51527 32.0692 5.17192 32.5332 6.827 32.3952C8.20939 32.3247 9.47513 31.8184 10.4918 31.0159C10.9679 30.6695 11.4139 30.262 11.8175 29.7918L11.8443 29.7604L13.8083 27.472L19.8091 20.4798L27.8119 11.1552C28.373 10.5016 28.8018 9.78375 29.1028 9.03452C29.4433 8.25395 29.634 7.39188 29.634 6.48591Z" fill="#0057FF"/>
<path d="M27.6256 32.5724C31.1862 32.5724 34.0726 29.7022 34.0726 26.1617C34.0726 22.6212 31.1862 19.751 27.6256 19.751C24.0651 19.751 21.1787 22.6212 21.1787 26.1617C21.1787 29.7022 24.0651 32.5724 27.6256 32.5724Z" fill="#0057FF"/>
<path d="M57.1578 26.193C57.1578 26.1805 57.1578 26.1711 57.1562 26.1632C57.1562 26.1476 57.1547 26.1303 57.1531 26.1146C57.1531 26.0833 57.1499 26.052 57.1484 26.0206C57.1484 26.0049 57.1484 25.9893 57.1452 25.972C57.1452 25.9579 57.1421 25.9454 57.1405 25.9313C57.0963 25.3435 56.9718 24.7792 56.7732 24.2494V24.2416C56.7732 24.2416 56.7685 24.2385 56.7685 24.2369L53.8713 14.486L50.8417 4.6458C50.703 4.17714 50.5044 3.74767 50.2553 3.35268C50.2348 3.31977 50.2144 3.28999 50.1939 3.25707C50.1797 3.2367 50.1686 3.21789 50.1529 3.19751C50.6368 4.07213 50.9048 5.05803 50.9347 6.05804C50.993 7.69598 50.4776 9.39976 49.3726 10.8308C49.2922 10.9358 49.2071 11.0408 49.1204 11.1427L42.4434 18.9265L44.8235 26.9015V26.9062C45.0899 30.0567 47.7428 32.5316 50.9788 32.5316C54.2149 32.5316 56.8646 30.0598 57.1326 26.9125C57.1326 26.8999 57.1357 26.889 57.1373 26.878C57.1389 26.8607 57.1405 26.8435 57.1405 26.8278C57.1452 26.7886 57.1468 26.7495 57.1484 26.7103C57.1499 26.6773 57.1515 26.646 57.1515 26.6131C57.1547 26.5504 57.1562 26.4861 57.1562 26.4234V26.3874C57.1562 26.3231 57.1547 26.2589 57.1531 26.1946L57.1578 26.193Z" fill="#19D8EA" stroke="#19D8EA" stroke-width="0.553785" stroke-miterlimit="10"/>
<path d="M50.1952 3.25397C50.1811 3.23359 50.17 3.21478 50.1543 3.19441C49.5994 2.39659 48.7388 1.55646 47.9065 1.11131C46.5162 0.421653 44.8438 0.217889 43.2502 0.70222C40.0157 1.67558 38.1841 5.03455 39.1472 8.18975L39.9889 10.9312L42.1768 18.0456L42.4447 18.9234L41.0718 20.5237L33.0218 29.878C32.6955 30.2589 32.3424 30.6006 31.9673 30.9016C31.9626 30.9031 31.9594 30.9063 31.9578 30.9094C30.2397 32.2793 28.0771 32.7997 26.113 32.3937H26.1114C25.1152 32.1884 24.1726 31.7448 23.3624 31.0536C21.9454 29.853 21.2093 28.1272 21.1793 26.3263C21.1777 26.2699 21.1777 26.2166 21.1777 26.1601C21.1777 26.1241 21.1777 26.0896 21.1793 26.0536C21.1856 25.7495 21.214 25.4438 21.2597 25.1382C21.2613 25.1241 21.2644 25.11 21.266 25.0959C21.2802 25.0191 21.2928 24.9454 21.3086 24.8686C21.545 23.6397 22.114 22.4328 23.0157 21.3858L31.0483 12.0158L39.0983 2.64581C41.6708 -0.351081 45.9961 -0.884002 48.7577 1.46868C49.229 1.86524 49.7334 2.4875 50.0644 3.02669C50.1117 3.1035 50.1543 3.17716 50.1937 3.25083L50.1952 3.25397Z" fill="#0057FF"/>
<path d="M96.3594 30.6821H97.551V33.7448H97.9088V30.6821H99.1005V30.3733H96.3594V30.6821Z" fill="#0057FF"/>
<path d="M101.483 32.5411C101.483 32.7339 101.449 32.8985 101.379 33.038C101.31 33.1759 101.209 33.2809 101.078 33.353C100.948 33.4251 100.793 33.4612 100.617 33.4612C100.374 33.4612 100.186 33.3922 100.052 33.2558C99.9182 33.1195 99.8505 32.9157 99.8505 32.6461V31.2151H99.5068V32.6837C99.5068 32.9251 99.551 33.1257 99.6408 33.2856C99.7291 33.4455 99.8552 33.5662 100.016 33.6461C100.177 33.7261 100.366 33.7668 100.583 33.7668C100.801 33.7668 101.007 33.7151 101.176 33.6101C101.313 33.5254 101.419 33.4141 101.498 33.2762V33.7417H101.827V31.2135H101.483V32.538V32.5411Z" fill="#0057FF"/>
<path d="M105.719 32.3843C105.628 32.3311 105.526 32.2903 105.412 32.2621C105.299 32.2339 105.187 32.2119 105.075 32.1963C104.963 32.1822 104.86 32.1649 104.767 32.1461C104.674 32.1273 104.599 32.1006 104.542 32.0693C104.485 32.038 104.457 31.9894 104.457 31.9251C104.457 31.8546 104.496 31.7966 104.573 31.7511C104.651 31.7057 104.774 31.6837 104.942 31.6837C105.062 31.6837 105.185 31.6978 105.313 31.7245C105.44 31.7511 105.567 31.8028 105.693 31.8765L105.945 31.342C105.822 31.2684 105.669 31.2119 105.485 31.1727C105.3 31.1336 105.119 31.1147 104.942 31.1147C104.69 31.1147 104.474 31.1508 104.293 31.2229C104.112 31.295 103.975 31.3937 103.878 31.5191C103.782 31.6445 103.735 31.7887 103.735 31.9533C103.735 32.1006 103.763 32.2213 103.82 32.3138C103.877 32.4063 103.951 32.4815 104.045 32.5348C104.138 32.5897 104.242 32.6304 104.356 32.6571C104.469 32.6837 104.581 32.7057 104.692 32.7213C104.804 32.737 104.906 32.7543 104.999 32.7699C105.092 32.7856 105.168 32.8091 105.224 32.8405C105.281 32.8718 105.31 32.9173 105.31 32.9784C105.31 33.0521 105.273 33.1101 105.201 33.1524C105.128 33.1947 105.005 33.2151 104.83 33.2151C104.673 33.2151 104.512 33.1916 104.348 33.1445C104.184 33.0975 104.044 33.038 103.924 32.9643L103.672 33.5035C103.792 33.5834 103.954 33.6508 104.159 33.7041C104.364 33.7574 104.578 33.784 104.8 33.784C105.062 33.784 105.284 33.748 105.467 33.6775C105.65 33.6069 105.789 33.5098 105.887 33.3859C105.984 33.2621 106.032 33.1195 106.032 32.9596C106.032 32.8123 106.003 32.6916 105.945 32.6007C105.887 32.5097 105.812 32.4376 105.719 32.3843Z" fill="#0057FF"/>
<path d="M108.472 31.3953C108.253 31.2088 107.944 31.1163 107.547 31.1163C107.341 31.1163 107.137 31.143 106.937 31.1978C106.737 31.2527 106.565 31.3295 106.423 31.4298L106.694 31.9549C106.787 31.8812 106.902 31.8232 107.036 31.7793C107.17 31.7355 107.306 31.7135 107.446 31.7135C107.65 31.7135 107.801 31.759 107.899 31.8483C107.996 31.9377 108.047 32.0631 108.047 32.2245H107.446C107.181 32.2245 106.967 32.2574 106.802 32.3232C106.638 32.3891 106.516 32.48 106.441 32.596C106.365 32.712 106.327 32.8468 106.327 33.0004C106.327 33.154 106.367 33.2809 106.444 33.4001C106.521 33.5192 106.633 33.6132 106.778 33.6822C106.923 33.7512 107.098 33.7856 107.301 33.7856C107.53 33.7856 107.717 33.7417 107.862 33.6555C107.962 33.596 108.037 33.5176 108.096 33.4204V33.7465H108.803V32.2684C108.803 31.8734 108.693 31.5834 108.474 31.3969L108.472 31.3953ZM107.828 33.19C107.728 33.2496 107.615 33.2794 107.489 33.2794C107.356 33.2794 107.252 33.2511 107.177 33.1947C107.101 33.1383 107.063 33.0631 107.063 32.9659C107.063 32.8797 107.096 32.8076 107.163 32.7496C107.229 32.6916 107.35 32.6634 107.528 32.6634H108.047V32.9283C108.001 33.0443 107.929 33.132 107.829 33.19H107.828Z" fill="#0057FF"/>
<path d="M110.239 30.1711H109.484V33.7448H110.239V30.1711Z" fill="#0057FF"/>
<path d="M112.812 32.4345C112.812 32.5912 112.786 32.7229 112.735 32.8263C112.683 32.9313 112.612 33.0081 112.522 33.0567C112.432 33.1069 112.328 33.132 112.212 33.132C112.043 33.132 111.914 33.0818 111.822 32.9799C111.731 32.878 111.684 32.7213 111.684 32.505V31.1523H110.929V32.6163C110.929 32.8827 110.976 33.1022 111.069 33.273C111.162 33.4454 111.294 33.5724 111.463 33.6555C111.633 33.7386 111.826 33.7809 112.042 33.7809C112.242 33.7809 112.426 33.7354 112.596 33.6429C112.696 33.5896 112.779 33.5191 112.85 33.4345V33.7417H113.567V31.1508H112.812V32.4313V32.4345Z" fill="#0057FF"/>
<path d="M116.168 31.4267C116.108 31.3608 116.041 31.3044 115.965 31.2605C115.801 31.1649 115.609 31.1163 115.388 31.1163C115.142 31.1163 114.921 31.1712 114.724 31.2793C114.527 31.389 114.371 31.5426 114.258 31.7417C114.143 31.9408 114.086 32.1774 114.086 32.4502C114.086 32.7229 114.143 32.9549 114.258 33.1539C114.373 33.353 114.529 33.5082 114.724 33.6179C114.921 33.7292 115.142 33.784 115.388 33.784C115.616 33.784 115.814 33.7355 115.976 33.6398C116.061 33.5897 116.137 33.5239 116.201 33.4455V33.7464H116.923V30.1727H116.168V31.4282V31.4267ZM116.093 32.8326C116.033 32.9408 115.952 33.0223 115.853 33.0803C115.752 33.1383 115.642 33.1665 115.519 33.1665C115.396 33.1665 115.279 33.1383 115.18 33.0803C115.081 33.0223 115 32.9392 114.94 32.8326C114.88 32.7245 114.85 32.5975 114.85 32.4502C114.85 32.3028 114.88 32.1712 114.94 32.0646C115 31.958 115.081 31.8765 115.18 31.8185C115.279 31.7605 115.393 31.7323 115.519 31.7323C115.645 31.7323 115.752 31.7605 115.853 31.8185C115.952 31.8765 116.033 31.958 116.093 32.0646C116.152 32.1712 116.182 32.2997 116.182 32.4502C116.182 32.6007 116.152 32.726 116.093 32.8326Z" fill="#0057FF"/>
<path d="M119.912 31.1931C119.711 31.1931 119.521 31.2229 119.339 31.2825C119.158 31.342 119.004 31.4267 118.874 31.5348L119.029 31.7903C119.133 31.701 119.257 31.6289 119.407 31.574C119.555 31.5191 119.713 31.4925 119.877 31.4925C120.117 31.4925 120.296 31.5505 120.418 31.6665C120.539 31.7825 120.599 31.947 120.599 32.1633V32.3169H119.79C119.547 32.3169 119.355 32.3499 119.212 32.4157C119.068 32.4815 118.964 32.5677 118.901 32.6759C118.838 32.784 118.807 32.9032 118.807 33.0348C118.807 33.179 118.844 33.3076 118.919 33.4173C118.993 33.5286 119.1 33.6148 119.24 33.6775C119.38 33.7402 119.546 33.7715 119.737 33.7715C119.979 33.7715 120.18 33.7214 120.34 33.6226C120.457 33.5505 120.548 33.458 120.615 33.3499V33.748H120.944V32.1775C120.944 31.8467 120.854 31.6006 120.675 31.4376C120.495 31.2746 120.241 31.1947 119.912 31.1947V31.1931ZM120.291 33.3671C120.151 33.4549 119.984 33.4988 119.79 33.4988C119.587 33.4988 119.429 33.4549 119.316 33.3687C119.202 33.2825 119.146 33.1665 119.146 33.0223C119.146 32.8938 119.193 32.7872 119.289 32.6994C119.384 32.6132 119.554 32.5693 119.8 32.5693H120.599V32.9831C120.534 33.1508 120.432 33.2778 120.291 33.3655V33.3671Z" fill="#0057FF"/>
<path d="M125.099 32.5411C125.099 32.7339 125.064 32.8985 124.995 33.038C124.925 33.1775 124.824 33.2809 124.694 33.353C124.563 33.4251 124.408 33.4612 124.232 33.4612C123.989 33.4612 123.801 33.3922 123.667 33.2558C123.533 33.1195 123.466 32.9157 123.466 32.6461V31.2151H123.122V32.6837C123.122 32.9251 123.166 33.1257 123.254 33.2856C123.343 33.4455 123.469 33.5662 123.63 33.6461C123.79 33.7261 123.98 33.7668 124.196 33.7668C124.411 33.7668 124.62 33.7151 124.788 33.6101C124.925 33.5254 125.031 33.4141 125.11 33.2762V33.7417H125.439V31.2135H125.096V32.538L125.099 32.5411Z" fill="#0057FF"/>
<path d="M128.246 31.3107C128.09 31.2323 127.907 31.1931 127.7 31.1931C127.454 31.1931 127.243 31.2448 127.065 31.3499C126.922 31.4345 126.811 31.5458 126.731 31.6821V31.2182H126.401V33.7464H126.745V32.4173C126.745 32.2245 126.781 32.0599 126.854 31.9235C126.926 31.7872 127.03 31.6821 127.164 31.61C127.298 31.5379 127.456 31.5019 127.637 31.5019C127.88 31.5019 128.067 31.5709 128.201 31.7072C128.335 31.8436 128.403 32.0458 128.403 32.3122V33.748H128.747V32.2793C128.747 32.0348 128.703 31.8326 128.614 31.6727C128.526 31.5129 128.403 31.3922 128.247 31.3138L128.246 31.3107Z" fill="#0057FF"/>
<path d="M131.721 31.8185C131.825 31.7605 131.94 31.7323 132.07 31.7323C132.189 31.7323 132.3 31.7605 132.401 31.8185C132.503 31.8765 132.587 31.9658 132.654 32.0881L133.241 31.7746C133.145 31.563 132.993 31.4 132.79 31.2856C132.587 31.1712 132.347 31.1147 132.073 31.1147C131.799 31.1147 131.542 31.1712 131.323 31.2856C131.103 31.4 130.932 31.5568 130.807 31.7574C130.683 31.958 130.621 32.1884 130.621 32.4486C130.621 32.7088 130.683 32.9345 130.807 33.1367C130.932 33.3389 131.103 33.4972 131.323 33.6116C131.542 33.7261 131.792 33.7825 132.073 33.7825C132.353 33.7825 132.587 33.7261 132.79 33.6116C132.993 33.4972 133.143 33.3358 133.241 33.1273L132.654 32.8091C132.587 32.9345 132.502 33.0254 132.401 33.0818C132.3 33.1383 132.188 33.1665 132.07 33.1665C131.94 33.1665 131.824 33.1383 131.721 33.0803C131.617 33.0223 131.537 32.9408 131.477 32.8342C131.417 32.7276 131.387 32.5991 131.387 32.4486C131.387 32.2981 131.417 32.1696 131.477 32.063C131.537 31.9564 131.619 31.8749 131.721 31.8169V31.8185Z" fill="#0057FF"/>
<path d="M134.413 30.1711H133.658V33.7448H134.413V30.1711Z" fill="#0057FF"/>
<path d="M135.493 29.9548C135.354 29.9548 135.241 29.9956 135.154 30.0755C135.068 30.1555 135.023 30.2558 135.023 30.3749C135.023 30.494 135.068 30.5928 135.154 30.6743C135.241 30.7542 135.354 30.795 135.493 30.795C135.632 30.795 135.749 30.7542 135.835 30.6727C135.92 30.5912 135.963 30.4878 135.963 30.3624C135.963 30.2432 135.919 30.1461 135.832 30.0708C135.745 29.9956 135.632 29.958 135.493 29.958V29.9548Z" fill="#0057FF"/>
<path d="M135.871 31.1539H135.116V33.7449H135.871V31.1539Z" fill="#0057FF"/>
<path d="M138.16 33.0834C138.058 33.1398 137.948 33.1681 137.829 33.1681C137.7 33.1681 137.584 33.1398 137.481 33.0818C137.377 33.0239 137.297 32.9423 137.237 32.8358C137.177 32.7292 137.147 32.6007 137.147 32.4502C137.147 32.2997 137.177 32.1712 137.237 32.0646C137.297 31.958 137.379 31.8765 137.481 31.8185C137.585 31.7605 137.7 31.7323 137.829 31.7323C137.949 31.7323 138.06 31.7605 138.16 31.8185C138.263 31.8765 138.346 31.9658 138.414 32.0881L139.001 31.7746C138.904 31.563 138.753 31.4 138.55 31.2856C138.346 31.1712 138.107 31.1147 137.833 31.1147C137.558 31.1147 137.301 31.1712 137.082 31.2856C136.863 31.4 136.691 31.5568 136.567 31.7574C136.442 31.958 136.381 32.1884 136.381 32.4486C136.381 32.7088 136.442 32.9345 136.567 33.1367C136.691 33.3389 136.863 33.4972 137.082 33.6116C137.301 33.7261 137.552 33.7825 137.833 33.7825C138.113 33.7825 138.346 33.7261 138.55 33.6116C138.753 33.4972 138.903 33.3358 139.001 33.1273L138.414 32.8091C138.346 32.9345 138.261 33.0254 138.16 33.0818V33.0834Z" fill="#0057FF"/>
</svg>
