<svg width="25" height="24" viewBox="0 0 25 24" fill="none" xmlns="http://www.w3.org/2000/svg">
<path d="M19.5 19L16.5 16M10.5002 20H7.69692C6.57901 20 6.0192 20 5.5918 19.7822C5.21547 19.5905 4.90973 19.2842 4.71799 18.9079C4.5 18.4801 4.5 17.9203 4.5 16.8002V7.2002C4.5 6.08009 4.5 5.51962 4.71799 5.0918C4.90973 4.71547 5.21547 4.40973 5.5918 4.21799C6.01962 4 6.58009 4 7.7002 4H17.3002C18.4203 4 18.9796 4 19.4074 4.21799C19.7837 4.40973 20.0905 4.71547 20.2822 5.0918C20.5 5.5192 20.5 6.07899 20.5 7.19691V10.0002M14 17C12.067 17 10.5 15.433 10.5 13.5C10.5 11.567 12.067 10 14 10C15.933 10 17.5 11.567 17.5 13.5C17.5 15.433 15.933 17 14 17Z" stroke="white" stroke-width="2" stroke-linecap="round" stroke-linejoin="round"/>
</svg>
