<svg width="24" height="24" viewBox="0 0 24 24" fill="none" xmlns="http://www.w3.org/2000/svg">
<path d="M6.16877 2.28052L3.25293 6.1683V19.7755C3.25293 20.2911 3.45773 20.7855 3.82228 21.1501C4.18683 21.5146 4.68127 21.7194 5.19682 21.7194H18.8041C19.3196 21.7194 19.8141 21.5146 20.1786 21.1501C20.5432 20.7855 20.748 20.2911 20.748 19.7755V6.1683L17.8321 2.28052H6.16877Z" stroke="white" stroke-width="2" stroke-linecap="round" stroke-linejoin="round"/>
<path d="M3.25293 6.16821H20.748" stroke="white" stroke-width="2" stroke-linecap="round" stroke-linejoin="round"/>
<path d="M15.8889 10.0559C15.8889 11.087 15.4792 12.0759 14.7501 12.805C14.021 13.5341 13.0322 13.9437 12.0011 13.9437C10.97 13.9437 9.98109 13.5341 9.25199 12.805C8.52289 12.0759 8.11328 11.087 8.11328 10.0559" stroke="white" stroke-width="2" stroke-linecap="round" stroke-linejoin="round"/>
</svg>
