<svg width="19" height="20" viewBox="0 0 19 20" fill="none" xmlns="http://www.w3.org/2000/svg">
<path d="M8.5005 14.898C9.28843 14.898 10.0687 14.7428 10.7966 14.4412C11.5246 14.1397 12.186 13.6978 12.7431 13.1406C13.3003 12.5835 13.7423 11.922 14.0438 11.1941C14.3453 10.4661 14.5005 9.6859 14.5005 8.89796C14.5005 8.11003 14.3453 7.32982 14.0438 6.60186C13.7423 5.87391 13.3003 5.21247 12.7431 4.65532C12.186 4.09817 11.5246 3.65622 10.7966 3.35469C10.0687 3.05316 9.28843 2.89796 8.5005 2.89796C6.9092 2.89796 5.38308 3.53011 4.25786 4.65532C3.13264 5.78054 2.5005 7.30667 2.5005 8.89796C2.5005 10.4893 3.13264 12.0154 4.25786 13.1406C5.38308 14.2658 6.9092 14.898 8.5005 14.898ZM14.8205 13.804L18.4005 17.384C18.4959 17.4763 18.572 17.5867 18.6244 17.7087C18.6767 17.8308 18.7042 17.962 18.7052 18.0948C18.7063 18.2276 18.6809 18.3592 18.6305 18.4821C18.5802 18.6049 18.5058 18.7165 18.4119 18.8104C18.3179 18.9042 18.2062 18.9784 18.0833 19.0286C17.9604 19.0787 17.8287 19.104 17.6959 19.1027C17.5631 19.1015 17.4319 19.0738 17.3099 19.0213C17.188 18.9688 17.0777 18.8925 16.9855 18.797L13.4055 15.217C11.798 16.4648 9.7753 17.0531 7.74926 16.8622C5.72322 16.6712 3.84611 15.7153 2.50005 14.189C1.154 12.6628 0.440188 10.6809 0.503929 8.64689C0.56767 6.61287 1.40417 4.67959 2.84315 3.24061C4.28213 1.80163 6.2154 0.965131 8.24943 0.90139C10.2834 0.837649 12.2653 1.55146 13.7916 2.89752C15.3178 4.24357 16.2737 6.12068 16.4647 8.14672C16.6557 10.1728 16.0674 12.1954 14.8195 13.803L14.8205 13.804Z" fill="white"/>
</svg>
