<svg width="14" height="13" viewBox="0 0 14 13" fill="none" xmlns="http://www.w3.org/2000/svg">
<path d="M5.84492 3.72458C5.84492 4.13083 5.84492 4.52458 5.97305 4.89333C4.62617 6.47458 1.06992 10.6527 0.738672 10.9715C0.672837 11.0305 0.620171 11.1028 0.584098 11.1835C0.548025 11.2643 0.529354 11.3518 0.529297 11.4402C0.529297 11.7058 0.691797 11.9621 0.829297 12.1058C1.03555 12.3215 1.9168 13.1371 2.0793 12.9808C2.56055 12.5121 2.65742 12.3871 2.8543 12.1933C3.15117 11.9027 2.82305 11.309 2.92617 11.0683C3.0293 10.8277 3.13867 10.7808 3.3168 10.7433C3.49492 10.7058 3.81055 10.834 4.05742 10.8371C4.3168 10.8402 4.45742 10.7308 4.65117 10.5496C4.80742 10.4058 4.91992 10.2715 4.92305 10.0621C4.9293 9.78083 4.52305 9.40895 4.82617 9.11208C5.1293 8.8152 5.5668 9.30583 5.88867 9.26833C6.21055 9.23083 6.60117 8.78395 6.6418 8.59333C6.68242 8.4027 6.27617 7.91208 6.33867 7.63395C6.36055 7.5402 6.55117 7.32145 6.69492 7.2902C6.83867 7.25895 7.47617 7.50583 7.61992 7.47458C7.79492 7.43708 7.99805 7.2527 8.16367 7.14958C8.64805 7.35895 9.08867 7.44333 9.6543 7.44333C11.7949 7.44333 13.5293 5.77458 13.5293 3.71833C13.5293 1.66208 11.7949 0.000518799 9.6543 0.000518799C7.51367 0.000518799 5.84492 1.66833 5.84492 3.72458ZM11.5293 3.00052C11.5293 3.1983 11.4706 3.39164 11.3608 3.55609C11.2509 3.72054 11.0947 3.84871 10.912 3.9244C10.7293 4.00009 10.5282 4.01989 10.3342 3.9813C10.1402 3.94272 9.96204 3.84748 9.82219 3.70762C9.68234 3.56777 9.5871 3.38959 9.54851 3.19561C9.50993 3.00163 9.52973 2.80056 9.60542 2.61783C9.6811 2.43511 9.80928 2.27893 9.97373 2.16905C10.1382 2.05917 10.3315 2.00052 10.5293 2.00052C10.7945 2.00052 11.0489 2.10588 11.2364 2.29341C11.4239 2.48095 11.5293 2.7353 11.5293 3.00052Z" fill="white"/>
</svg>
